PathFileType	4	(X/Y/Z)	C:\Users\86182\Documents\cortex\Trimmed_M1_L13.trc
DataRate	CameraRate	NumFrames	NumMarkers	Units	OrigDataRate	OrigDataStartFrame	OrigNumFrames
100.00	100.00	       98	2	mm	100.00	541	       901
Frame#	Time	gripper			box			
		X1	Y1	Z1	X2	Y2	Z2	

541	5.400	199.38022	195.97275	293.11664	200.50607	195.48181	153.85657	
542	5.410	199.42252	195.98921	293.09726	200.57776	195.60153	153.81255	
543	5.420	199.47256	195.96619	293.08972	200.51933	195.50510	153.83650	
544	5.430	199.50363	195.98412	293.08319	200.63989	195.64435	153.79517	
545	5.440	199.42717	195.97191	293.10141	200.54910	195.53876	153.82768	
546	5.450	199.51495	195.98866	293.07166	200.59544	195.62929	153.79224	
547	5.460	199.51588	195.97531	293.10233	200.58148	195.58238	153.81932	
548	5.470	199.49022	195.99660	293.07431	200.61617	195.61508	153.80692	
549	5.480	199.47566	195.98111	293.11267	200.56589	195.55516	153.82774	
550	5.490	199.47551	195.99309	293.07770	200.59695	195.59656	153.80637	
551	5.500	199.51450	195.97668	293.07614	200.56395	195.55069	153.83276	
552	5.510	199.46901	195.97870	293.11093	200.56781	195.55786	153.82613	
553	5.520	199.50140	195.97995	293.07449	200.58202	195.57190	153.82587	
554	5.530	199.52150	195.97391	293.10303	200.58148	195.58238	153.81932	
555	5.540	199.48256	195.99622	293.09006	200.59250	195.58414	153.82204	
556	5.550	199.46712	195.98296	293.10855	200.57292	195.57114	153.82492	
557	5.560	199.49768	195.98781	293.11346	200.60579	195.60124	153.81409	
558	5.570	199.47656	195.95270	293.09393	200.55829	195.54440	153.83421	
559	5.580	199.49031	195.98653	293.07681	200.58331	195.57622	153.81993	
560	5.590	199.41792	195.97032	293.10672	200.57536	195.56682	153.82307	
561	5.600	199.41875	196.02278	293.08643	200.57375	195.60114	153.80566	
562	5.610	199.46156	195.98192	293.09064	200.57913	195.57217	153.81985	
563	5.620	199.45721	196.00237	293.07996	200.60373	195.60182	153.80904	
564	5.630	199.42114	196.00931	293.08908	200.58472	195.59657	153.81293	
565	5.640	199.50140	195.97995	293.07449	200.58852	195.58716	153.80856	
566	5.650	199.47598	195.97583	293.08463	200.58012	195.56747	153.83089	
567	5.660	199.49606	195.98795	293.08026	200.61342	195.61029	153.81100	
568	5.670	199.48814	195.99582	293.08783	200.56969	195.56053	153.82452	
569	5.680	199.52010	195.97528	293.07684	200.59444	195.58513	153.82381	
570	5.690	199.47580	195.96080	293.09848	200.57253	195.56367	153.82379	
571	5.700	199.48305	195.98358	293.07907	200.60469	195.60231	153.80989	
572	5.710	199.47598	195.97583	293.08463	200.57912	195.57388	153.81651	
573	5.720	199.49164	195.98970	293.08514	200.59703	195.59494	153.80965	
574	5.730	199.48322	195.99399	293.08139	200.58231	195.58791	153.81015	
575	5.740	199.45801	195.99928	293.09470	200.59950	195.59567	153.82030	
576	5.750	199.50632	195.98477	293.07285	200.59566	195.60161	153.80893	
577	5.760	199.46478	195.99762	293.08395	200.59695	195.59656	153.80637	
578	5.770	199.45721	196.00237	293.07996	200.57533	195.56853	153.81972	
579	5.780	199.43904	196.01158	293.08221	200.59511	195.59395	153.80794	
580	5.790	199.47183	195.99495	293.07816	200.59906	195.59433	153.81471	
581	5.800	199.43825	195.99309	293.08646	200.57724	195.56950	153.82146	
582	5.810	199.44472	195.99455	293.08734	200.63348	195.63434	153.80243	
583	5.820	199.45732	195.99664	293.08228	200.59413	195.60201	153.81273	
584	5.830	199.46452	195.99866	293.07904	200.57533	195.56853	153.81972	
585	5.840	199.43513	195.99077	293.09198	200.56781	195.55786	153.82613	
586	5.850	199.45697	195.97334	293.11032	200.56201	195.54619	153.83780	
587	5.860	199.48230	195.98306	293.08319	200.59793	195.59709	153.80721	
588	5.870	199.48253	195.96893	293.10172	200.56395	195.55069	153.83276	
589	5.880	199.48351	195.97224	293.10419	200.58487	195.57507	153.82513	
590	5.890	199.51637	195.97621	293.07639	200.58958	195.58263	153.81941	
591	5.900	199.51228	195.98689	293.09195	200.58675	195.57776	153.82352	
592	5.910	199.50891	195.97807	293.07544	200.61542	195.61136	153.81273	
593	5.920	199.50429	195.98163	293.07526	200.56969	195.56053	153.82452	
594	5.930	199.46390	196.00200	293.08261	200.56569	195.57486	153.81895	
595	5.940	199.45354	196.00423	293.08041	200.60832	195.60922	153.80339	
596	5.950	199.44090	196.00783	293.08313	200.59821	195.60175	153.80603	
597	5.960	199.49434	195.97220	293.08005	200.61241	195.60976	153.81012	
598	5.970	199.46085	196.00052	293.07950	200.59523	195.59065	153.81458	
599	5.980	199.47121	195.99817	293.08392	200.56369	195.58810	153.80440	
600	5.990	199.44795	195.98018	293.09317	200.58575	195.57896	153.81927	
601	6.000	199.48929	195.96533	293.08911	200.59532	195.58900	153.81792	
602	6.010	199.47252	195.97670	293.09003	200.57158	195.56322	153.82292	
603	6.020	199.49025	195.98560	293.07587	200.59906	195.59433	153.81471	
604	6.030	199.47330	195.97821	293.08685	200.58389	195.57631	153.82086	
605	6.040	199.49258	195.97028	293.08139	200.54611	195.56371	153.81841	
606	6.050	199.46817	195.99681	293.07861	200.57191	195.56529	153.81952	
607	6.060	199.47667	195.97009	293.08746	200.57272	195.56651	153.82605	
608	6.070	199.47551	195.99309	293.07770	200.61160	195.61551	153.80478	
609	6.080	199.52444	195.99533	293.07526	200.61642	195.61188	153.81360	
610	6.090	199.47963	195.98160	293.08371	200.60789	195.60066	153.81921	
611	6.100	199.45793	196.00385	293.08472	200.59982	195.59976	153.80560	
612	6.110	199.48497	195.99261	293.08075	200.60876	195.60280	153.81671	
613	6.120	199.50679	195.98592	293.09082	200.58009	195.57268	153.82072	
614	6.130	199.48846	195.98796	293.07751	200.59247	195.58583	153.81866	
615	6.140	199.49062	195.97409	293.08051	200.58287	195.57748	153.81665	
616	6.150	199.43462	196.00536	293.08719	200.55203	195.54677	153.83253	
617	6.160	199.46085	196.00052	293.07950	200.62122	195.61780	153.81123	
618	6.170	199.46939	195.99577	293.08292	200.54990	195.56906	153.81519	
619	6.180	199.48456	195.98419	293.06857	200.56345	195.56293	153.82283	
620	6.190	199.45732	196.00081	293.08005	200.58481	195.57849	153.81839	
621	6.200	199.46146	196.00108	293.08334	200.59196	195.59462	153.81549	
622	6.210	199.43982	195.99239	293.08725	200.58383	195.60403	153.80420	
623	6.220	199.46303	195.98528	293.08505	200.61505	195.61613	153.80275	
624	6.230	199.50087	195.98697	293.08398	200.60855	195.60602	153.81001	
625	6.240	199.46817	195.99681	293.07861	200.61328	195.61188	153.80766	
626	6.250	199.47415	195.98439	293.08630	200.60178	195.60078	153.80731	
627	6.260	199.48256	195.99622	293.09006	200.58295	195.57411	153.82336	
628	6.270	199.45761	195.99609	293.08575	200.55902	195.56454	153.82632	
629	6.280	199.48386	195.98981	293.07855	200.58289	195.57919	153.81334	
630	6.290	199.50140	195.97995	293.07449	200.57158	195.56322	153.82292	
631	6.300	199.47551	195.99893	293.09586	200.57475	195.56673	153.82213	
632	6.310	199.48160	195.97108	293.08603	200.55281	195.54265	153.83456	
633	6.320	199.46732	195.98619	293.11154	200.57536	195.56335	153.82983	
634	6.330	199.46680	195.97765	293.08691	200.55447	195.53899	153.83746	
635	6.340	199.45175	195.97681	293.09915	200.58910	195.59145	153.81622	
636	6.350	199.50446	195.98131	293.07980	200.56454	195.57144	153.81587	
637	6.360	199.47064	195.99303	293.08237	200.59517	195.59230	153.81125	
638	6.370	199.47447	195.97285	293.09094	200.59108	195.60208	153.80678	
